<?xml version="1.0" encoding="utf-8"?>
<!-- Generator: Adobe Illustrator 25.0.1, SVG Export Plug-In . SVG Version: 6.00 Build 0)  -->
<svg version="1.1" id="レイヤー_1" xmlns="http://www.w3.org/2000/svg" xmlns:xlink="http://www.w3.org/1999/xlink" x="0px"
	 y="0px" viewBox="0 0 180 46" style="enable-background:new 0 0 180 46;" xml:space="preserve">
<style type="text/css">
	.st0{fill:#C51E25;}
</style>
<g>
	<g>
		<path class="st0" d="M36.6,0L25.9,22.5L25.2,0H18L6.8,22.8L6.5,0H0l1.2,32.5h6.9L19.9,8.7l0.7,23.7h6.7L43.1,0H36.6z M57.6,9.1
			c-1-0.5-2-0.7-2.9-0.7c-2.6,0-4.9,1.7-7.1,5.1L48.4,9h-5.9l-4.9,23.5h6.3l1.6-7.3c0.6-3,1.2-5.2,1.9-6.6c0.6-1.4,1.5-2.5,2.6-3.3
			c1.1-0.8,2.2-1.2,3.3-1.2c0.6,0,1.3,0.1,1.8,0.3L57.6,9.1z M55.1,32.5h6.3L66.3,9H60L55.1,32.5z M60.7,5.8H67L68.2,0h-6.3
			L60.7,5.8z M78.2,13.7h3.9L83,9h-3.8l1.7-8.1l-7.2,4.4L72.9,9h-3.2l-1,4.7H72l-2,9.5c-0.6,2.6-0.9,4.3-0.9,5
			c0,1.5,0.5,2.7,1.5,3.6c1,0.9,2.6,1.3,4.9,1.3c1.1,0,2.3-0.1,3.3-0.3l1-4.7c-1.1,0.1-1.8,0.2-2.1,0.2c-0.8,0-1.4-0.1-1.7-0.4
			c-0.3-0.3-0.5-0.7-0.5-1.1c0-0.3,0.2-1.3,0.6-3.1L78.2,13.7z M95.7,8.5c-4.5,0-8,1.7-10.4,5.1c-1.8,2.5-2.7,5.4-2.7,8.6
			c0,3.3,1,5.9,3,7.9c2,2,4.5,3,7.7,3c2.3,0,4.4-0.6,6.2-1.7c1.9-1.1,3.3-2.9,4.4-5.2l-5.7-1c-1.2,2.2-2.8,3.3-5,3.3
			c-1.3,0-2.4-0.5-3.3-1.4c-0.9-1-1.3-2.2-1.3-3.8c0-0.1,0-0.3,0-0.6h16c0.3-1.2,0.4-2.6,0.4-4.1c0-3.2-0.8-5.7-2.5-7.5
			C100.9,9.3,98.6,8.5,95.7,8.5z M99.4,18.9h-10c0.4-1.9,1.1-3.4,2.1-4.4c1-1,2.2-1.5,3.5-1.5c1.3,0,2.4,0.4,3.2,1.3
			c0.8,0.9,1.2,2.2,1.2,3.9C99.4,18.4,99.4,18.6,99.4,18.9z M173.4,0l-1.5,7.7l-2,16.6h3.5l4.9-16L180,0H173.4z M166.8,32.5h6.3
			l1.3-6.1h-6.4L166.8,32.5z M146.5,22.6c0.6-0.5-0.1-1.6-1.1-2c-1-0.4-1.3-1.6-2.5-3.2c-1.2-1.6-1.2-2.7-1.6-3.7
			c-0.4-0.9,0.1-2.2,0.1-3.2c0-0.9-1.3-1.7-2.1-1.5c-0.8,0.2-1.9,1.3-2,1.9c-0.1,1.1-0.1,1.6-0.9,2.5c-0.8,0.9-1.1,2.1-2.7,4.5
			c-1.6,2.4-1.8,2.5-3.9,6c-2.1,3.5-4,5.2-5,6.2c-1,0.9-4.1,2-6.7,2.2c-2.6,0.2-3.6-1.4-4.2-2.2c-0.6-0.7-0.8-3.2-0.9-4.3
			c-0.1-1.1-0.3-7-0.4-7.7c-0.1-0.7,0.2-2.4,0.5-2.9c0.3-0.5,0.4-1,0.5-1.3c0.4-0.2,0.6-0.4,1.3-0.6c0.7-0.2,2-0.8,2.7-1
			c0.6-0.2,1.6-0.7,2.1-1.3c0.6-0.7,0-1.3-0.7-2.2c-0.7-0.8-2.6-1.4-3.6-1.1c-0.9,0.2-1.7,0.3-2.9,1.1c-0.4,0.3-1.3,0.2-1.7,0.3
			c-0.4,0.1-0.9,0.3-1.3,0.4c-0.3,0.2-0.5,0.2-0.7,0.6c-0.2,0.4-0.2,0.6-0.2,1c0,0.4,0.1,0.7,0.3,1.2c0.2,0.4-0.1,0.4,0.1,0.9
			c0.2,0.6-0.2,0.7-0.4,1.1c-0.2,0.3-0.4,1.5-0.3,1.7c0,0.3,0.2,0.6,0.2,1c0,0.4,0.4,0.5,0.5,0.7c0.2,0.3-0.1,0.4-0.1,0.7
			c0,0.3,0,0.8-0.4,1.3c-0.4,0.5-0.2,0.5,0.1,0.6c0.3,0.2,0.2,0.7,0.4,0.9c0.2,0.3,0.1,0.6-0.3,0.8c-0.3,0.2-0.6,0.7-0.4,1.1
			c0.2,0.4,0,0.5-0.1,0.9c-0.1,0.5-0.1,0.8,0.2,1.1c0.3,0.3,0.2,0.6,0.5,1.2c0.1,0.3,0.2,0.9,0.3,1.5c0.1,0.7,0,1,0,1.4
			c0,0.3,0.3,1,0.6,1.3c0.3,0.3,1.4,1.6,1.7,2c2.4,2.7,7.8,2.4,9.4,2.1c1.7-0.4,6.4-3.5,7.2-4.3c2.7-3,5.9-7.6,6.5-8.6
			c0.7-1,2.7-4.1,3.1-4.7c0.6-0.8,1.1-1.2,1.6-1c0.5,0.2,1,0.8,1.5,1.2c0.5,0.4,1.4,2.5,2,3c0.6,0.5,1.1,1.1,1.5,1.5
			C144.8,22.4,146,23.1,146.5,22.6z M158.5,12.3c-0.8,0-2.5,1.2-3,1.8c-0.5,0.6-2.2,1.9-3.1,3c-0.9,1.1-1.9,3.1-2.6,3.9
			c-0.7,0.8-0.8,1.5-0.9,1.9c-0.1,0.4-0.4,1.1-1.1,1.9c-0.6,0.8-0.9,1-1,1.3c-0.1,0.4-0.4,0.7-0.8,1.1c-0.3,0.4-0.7,0.4-0.5,0.8
			c0.2,0.3-0.2,0.9,0,1.2c0.2,0.3,0.1,1.7,0.1,2.3c0,0.6,0.3,1.1,0.4,1.5c0.2,0.4,0.3,1.1,0.7,1.3c0.4,0.3,0.7,0.9,0.8,1.7
			c0.1,0.6-0.4,1.3-0.5,1.8c-0.1,0.5-0.2,0.8-0.6,1.7c-0.4,1-0.1,1.1,0.3,1.3c0.4,0.2,0.6,0.6,0.9,0.6c0.3,0.1,0.6,0.6,0.9,1.1
			c0.3,0.5,0.1,0.5,0,1c-0.1,0.4,0.3,1.1,0.8,1.3c0.5,0.3,1.6,0.9,2.7,1c1.1,0.1,3-0.6,3.9-1.1s1.5-1.3,1.6-1.8
			c0.1-0.6-1.3-2-2.3-2.3c-0.9-0.4-1.3-0.8-1.5-1.3c-0.2-0.4,0.3-0.8-1.3-1.9c-1.6-1.1-2-2.1-2.5-2.7c-0.4-0.6-0.6-3.8-0.6-5.7
			c0.1-1.9,0.4-4.2,0.9-5.6c0.6-1.3,1.6-3.1,2.2-3.9c0.6-0.8,1.1-1.5,1.6-1.8c0.4-0.3,0.9-1.2,1.7-2.2c0.8-1,0.9-0.7,1.7-0.9
			c0.8-0.2,1.5,0.9,2,1.3c0.4,0.4,0.5,1.1,0.7,1.8c0.2,0.7,0.3,2.3,0.1,2.8c-0.2,0.5-0.3,0.8-0.1,1.5c0.1,0.7-0.2,1.3-0.4,1.9
			c-0.2,0.6-0.1,0.8-0.2,1.4c-0.1,0.6-0.4,1.4-0.6,2.2c-0.1,0.8-0.7,1.1-1.3,1.4c-0.6,0.3-1,0.4-1.6,0.7c-0.6,0.3-0.6,0.3-1.6,0.4
			c-1.1,0.2-1.8-0.2-2.2-0.4c-0.3-0.3-0.8-0.3-0.9,0c-0.1,0.3,0.5,0.9,0.9,1.2c0.4,0.3,0.9,0.4,1.5,0.6c0.6,0.1,2.5-0.3,3-0.4
			c0.4-0.1,1.6-0.4,2.3-0.9c0.6-0.4,1.4-1.3,1.6-1.6c0.3-0.4,0.4-2,0.5-2.7c0.1-0.7,0.1-2.6,0.2-3c0.1-0.4,0.2-1.6,0.7-2.7
			c0.5-1.1-0.1-2.9-0.7-4.3C160.9,14.4,159.4,12.3,158.5,12.3z"/>
	</g>
</g>
</svg>
